<svg width="32" height="32" viewBox="0 0 32 32" fill="none" xmlns="http://www.w3.org/2000/svg">
    <g id="Instagram">
        <path id="Vector" d="M11.3613 4.87837C10.1696 4.93461 9.35577 5.12477 8.64433 5.40433C7.90805 5.69129 7.28397 6.07633 6.66305 6.69949C6.04213 7.32265 5.65977 7.94717 5.37485 8.68457C5.09909 9.39757 4.91229 10.212 4.85965 11.4044C4.80701 12.5967 4.79533 12.98 4.80117 16.0215C4.80701 19.063 4.82045 19.4442 4.87821 20.639C4.93513 21.8305 5.12461 22.644 5.40417 23.3557C5.69157 24.092 6.07617 24.7158 6.69957 25.337C7.32297 25.9581 7.94701 26.3396 8.68621 26.625C9.39853 26.9002 10.2133 27.088 11.4054 27.1402C12.5975 27.1924 12.9812 27.2044 16.0218 27.1986C19.0624 27.1928 19.4452 27.1794 20.6398 27.1227C21.8344 27.066 22.6437 26.8752 23.3555 26.597C24.0918 26.3089 24.7161 25.925 25.3368 25.3014C25.9575 24.6777 26.3397 24.0528 26.6244 23.3149C26.9003 22.6026 27.0878 21.7879 27.1396 20.5967C27.1918 19.4012 27.2041 19.0195 27.1983 15.9785C27.1925 12.9374 27.1788 12.5562 27.1221 11.3618C27.0654 10.1674 26.8757 9.35637 26.5964 8.64425C26.3085 7.90797 25.9244 7.28457 25.3012 6.66297C24.6781 6.04137 24.0526 5.65945 23.315 5.37545C22.6022 5.09969 21.788 4.91177 20.5959 4.86025C19.4037 4.80873 19.02 4.79549 15.9783 4.80133C12.9366 4.80713 12.5558 4.82013 11.3613 4.87837ZM11.4921 25.1253C10.4001 25.0778 9.80713 24.8964 9.41197 24.7445C8.88873 24.5429 8.51597 24.2992 8.12221 23.9092C7.72841 23.5192 7.48649 23.1451 7.28221 22.623C7.12877 22.2278 6.94397 21.6356 6.89289 20.5436C6.83733 19.3633 6.82569 19.009 6.81917 16.0188C6.81269 13.0286 6.82413 12.6747 6.87585 11.494C6.92245 10.4029 7.10501 9.80929 7.25665 9.41437C7.45825 8.89045 7.70109 8.51837 8.09197 8.12481C8.48285 7.73125 8.85581 7.48889 9.37837 7.28457C9.77309 7.13049 10.3653 6.94725 11.4569 6.89529C12.6381 6.83929 12.992 6.82809 15.9817 6.82157C18.9714 6.81509 19.3262 6.82629 20.5078 6.87825C21.5989 6.92573 22.1928 7.10649 22.5872 7.25905C23.1107 7.46065 23.4832 7.70281 23.8768 8.09433C24.2704 8.48589 24.5129 8.85753 24.7173 9.38121C24.8716 9.77481 25.0548 10.3668 25.1063 11.459C25.1625 12.6402 25.1753 12.9943 25.1807 15.9838C25.1861 18.9734 25.1755 19.3284 25.1238 20.5086C25.0761 21.6006 24.8951 22.1938 24.743 22.5894C24.5414 23.1124 24.2984 23.4854 23.9073 23.8787C23.5161 24.2721 23.1437 24.5144 22.6208 24.7187C22.2266 24.8726 21.6337 25.0563 20.543 25.1082C19.3619 25.1638 19.0079 25.1754 16.0171 25.182C13.0262 25.1884 12.6732 25.1764 11.4921 25.1253ZM20.6225 10.014C20.623 10.2798 20.7022 10.5396 20.8503 10.7604C20.9984 10.9812 21.2086 11.1531 21.4544 11.2544C21.7001 11.3557 21.9705 11.3818 22.2311 11.3295C22.4917 11.2772 22.731 11.1487 22.9186 10.9604C23.1063 10.7721 23.2338 10.5323 23.2852 10.2715C23.3366 10.0107 23.3094 9.74049 23.2072 9.49509C23.105 9.24969 22.9323 9.04009 22.711 8.89285C22.4897 8.74557 22.2297 8.66725 21.9638 8.66777C21.6075 8.66849 21.266 8.81073 21.0144 9.06317C20.7629 9.31565 20.6219 9.65765 20.6225 10.014ZM10.2491 16.0112C10.2553 19.1875 12.8349 21.7566 16.0106 21.7505C19.1862 21.7444 21.7571 19.1651 21.751 15.9888C21.745 12.8124 19.1647 10.2427 15.9886 10.249C12.8125 10.2553 10.243 12.8353 10.2491 16.0112ZM12.2664 16.0071C12.265 15.2688 12.4825 14.5465 12.8915 13.9317C13.3005 13.317 13.8827 12.8373 14.5643 12.5534C15.2459 12.2694 15.9964 12.194 16.7209 12.3366C17.4454 12.4793 18.1113 12.8335 18.6345 13.3546C19.1577 13.8757 19.5146 14.5402 19.6601 15.2642C19.8055 15.9881 19.7331 16.7389 19.4519 17.4216C19.1707 18.1044 18.6933 18.6884 18.0801 19.0998C17.467 19.5113 16.7456 19.7317 16.0072 19.7332C15.5169 19.7342 15.0312 19.6386 14.5779 19.4519C14.1245 19.2652 13.7124 18.991 13.365 18.645C13.0176 18.299 12.7418 17.888 12.5533 17.4354C12.3648 16.9828 12.2673 16.4974 12.2664 16.0071Z" fill="#463A2A"></path>
    </g>
</svg>