<svg width="32" height="32" viewBox="0 0 32 32" fill="none" xmlns="http://www.w3.org/2000/svg">
    <g id="Pinterest">
        <path id="Vector" d="M15.9945 2.66669C8.62303 2.66669 2.66663 8.63405 2.66663 15.9945C2.66663 21.6438 6.17684 26.4703 11.135 28.4119C11.0144 27.3588 10.9156 25.7354 11.1789 24.5836C11.4202 23.5415 12.7365 17.9581 12.7365 17.9581C12.7365 17.9581 12.3417 17.1573 12.3417 15.9836C12.3417 14.1297 13.4167 12.7476 14.7549 12.7476C15.8957 12.7476 16.4442 13.6032 16.4442 14.6234C16.4442 15.7642 15.7202 17.4754 15.3363 19.066C15.0182 20.3933 16.0055 21.4792 17.3108 21.4792C19.6802 21.4792 21.5011 18.9782 21.5011 15.3803C21.5011 12.1882 19.2085 9.96135 15.9287 9.96135C12.1332 9.96135 9.90644 12.8024 9.90644 15.7422C9.90644 16.8831 10.3452 18.1116 10.8937 18.7808C11.0034 18.9124 11.0144 19.0331 10.9815 19.1647C10.8827 19.5815 10.6524 20.492 10.6085 20.6785C10.5536 20.9198 10.411 20.9747 10.1587 20.854C8.51332 20.0642 7.4822 17.629 7.4822 15.6764C7.4822 11.4751 10.5317 7.61389 16.2907 7.61389C20.9088 7.61389 24.5068 10.9047 24.5068 15.3144C24.5068 19.9106 21.6108 23.6073 17.596 23.6073C16.2468 23.6073 14.9743 22.9053 14.5465 22.0716C14.5465 22.0716 13.8774 24.6165 13.7128 25.2418C13.4167 26.4045 12.6049 27.8525 12.0564 28.741C13.307 29.1249 14.6233 29.3334 16.0055 29.3334C23.3659 29.3334 29.3333 23.366 29.3333 16.0055C29.3223 8.63405 23.3549 2.66669 15.9945 2.66669Z" fill="#3D3A33"></path>
    </g>
</svg>