<svg width="32" height="32" viewBox="0 0 32 32" fill="none" xmlns="http://www.w3.org/2000/svg">
    <g id="Youtube">
        <path id="Vector" d="M26.2478 9.88402C25.6402 8.80322 24.9808 8.60442 23.6382 8.52882C22.297 8.43782 18.9244 8.40002 16.0026 8.40002C13.0752 8.40002 9.7012 8.43782 8.3614 8.52742C7.0216 8.60442 6.3608 8.80182 5.7476 9.88402C5.1218 10.9634 4.7998 12.8226 4.7998 16.0958C4.7998 16.0986 4.7998 16.1 4.7998 16.1C4.7998 16.1028 4.7998 16.1042 4.7998 16.1042V16.107C4.7998 19.3662 5.1218 21.2394 5.7476 22.3076C6.3608 23.3884 7.0202 23.5844 8.36 23.6754C9.7012 23.7538 13.0752 23.8 16.0026 23.8C18.9244 23.8 22.297 23.7538 23.6396 23.6768C24.9822 23.5858 25.6416 23.3898 26.2492 22.309C26.8806 21.2408 27.1998 19.3676 27.1998 16.1084C27.1998 16.1084 27.1998 16.1042 27.1998 16.1014V16.0972C27.1998 12.8226 26.8806 10.9634 26.2478 9.88402ZM13.1998 20.3V11.9L20.1998 16.1L13.1998 20.3Z" fill="#463A2A"></path>
    </g>
</svg>